# xmcd
#
# Track frame offsets:
# 150
# 21575
# 37388
# 41275
# 56811
# 77213
# 98660
# 125402
# 141647
# 156145
# 175627
#
# Disc length: 2681 seconds
#
#
# Revision: 0
# Processed by: cddbd v1.5.1PL0 Copyright (c) Steve Scherf et al.
# Submitted via: FreeRIP 2.35 
#
DISCID=990a770b
DTITLE=Pete Mayes and the Texas Houserockers - Live! at Double Bayou Dance Hall
DYEAR=2003
DGENRE=Blues
TTITLE0=Kansas City
TTITLE1=Blueberry Hill
TTITLE2=Introduction
TTITLE3=I'm Ready
TTITLE4=Blue Shadows
TTITLE5=Pony Tail
TTITLE6=Honkytonk
TTITLE7=Things That I Uesd To Do
TTITLE8=Just a Little Bit
TTITLE9=Down Home Blues
TTITLE10=Sweet Home Chicago
EXTD=Texas Music
EXTT0=
EXTT1=
EXTT2=
EXTT3=
EXTT4=
EXTT5=
EXTT6=
EXTT7=
EXTT8=
EXTT9=
EXTT10=
PLAYORDER=
